<svg width="100%" viewBox="0 0 380 833" xmlns="http://www.w3.org/2000/svg" role="img" aria-label="Demo Martins Advocacia"><rect x="0" y="0" width="380" height="833" fill="#ffffff"/><rect x="12" y="12" width="196" height="805" rx="20" fill="#E5DDD5" stroke="rgba(0,0,0,0.18)" stroke-width="1"/><path d="M32,12 H188 A20,20 0 0 1 208,32 V58 H12 V32 A20,20 0 0 1 32,12 Z" fill="#075E54"/><path d="M26,28 l-6,7 l6,7" fill="none" stroke="#fff" stroke-width="2" stroke-linecap="round" stroke-linejoin="round"/><circle cx="52" cy="35" r="13" fill="#cfd8d4"/><text x="52" y="35" dy="0.34em" text-anchor="middle" font-family="Inter,Segoe UI,sans-serif" font-size="13" font-weight="600" fill="#075E54">M</text><text x="72" y="31" font-family="Inter,Segoe UI,sans-serif" font-size="13" font-weight="600" fill="#ffffff">Martins Advocacia</text><text x="72" y="46" font-family="Inter,Segoe UI,sans-serif" font-size="10.5" fill="#d7ece6">online</text><circle cx="188" cy="34" r="2" fill="#cfe3dc"/><circle cx="195" cy="34" r="2" fill="#cfe3dc"/><rect x="87" y="68" width="46" height="18" rx="6" fill="rgba(255,255,255,0.8)"/><text x="110" y="80" text-anchor="middle" font-family="Inter,Segoe UI,sans-serif" font-size="10.5" fill="#54656f">ontem</text><rect x="24" y="94" width="150" height="82" rx="9" fill="#ffffff"/><text x="32" y="113" font-family="Inter,Segoe UI,sans-serif" font-size="11" fill="#111b21">Boa tarde. Sofri um</text><text x="32" y="128" font-family="Inter,Segoe UI,sans-serif" font-size="11" fill="#111b21">acidente de trânsito,</text><text x="32" y="143" font-family="Inter,Segoe UI,sans-serif" font-size="11" fill="#111b21">tenho direito a</text><text x="32" y="158" font-family="Inter,Segoe UI,sans-serif" font-size="11" fill="#111b21">indenização?</text><text x="166" y="170" text-anchor="end" font-family="Inter,Segoe UI,sans-serif" font-size="10.5" fill="#667781">14:02</text><rect x="48" y="183" width="150" height="97" rx="9" fill="#DCF8C6"/><text x="56" y="202" font-family="Inter,Segoe UI,sans-serif" font-size="11" fill="#111b21">Boa tarde! Sou a Léa,</text><text x="56" y="217" font-family="Inter,Segoe UI,sans-serif" font-size="11" fill="#111b21">assistente do</text><text x="56" y="232" font-family="Inter,Segoe UI,sans-serif" font-size="11" fill="#111b21">escritório. Sinto</text><text x="56" y="247" font-family="Inter,Segoe UI,sans-serif" font-size="11" fill="#111b21">muito pelo ocorrido,</text><text x="56" y="262" font-family="Inter,Segoe UI,sans-serif" font-size="11" fill="#111b21">vou te ajudar.</text><text x="190" y="274" text-anchor="end" font-family="Inter,Segoe UI,sans-serif" font-size="10.5" fill="#667781">14:02  ✓✓</text><rect x="48" y="287" width="150" height="67" rx="9" fill="#DCF8C6"/><text x="56" y="306" font-family="Inter,Segoe UI,sans-serif" font-size="11" fill="#111b21">Pode me contar quando</text><text x="56" y="321" font-family="Inter,Segoe UI,sans-serif" font-size="11" fill="#111b21">foi e se há boletim de</text><text x="56" y="336" font-family="Inter,Segoe UI,sans-serif" font-size="11" fill="#111b21">ocorrência?</text><text x="190" y="348" text-anchor="end" font-family="Inter,Segoe UI,sans-serif" font-size="10.5" fill="#667781">14:03  ✓✓</text><rect x="24" y="361" width="150" height="67" rx="9" fill="#ffffff"/><text x="32" y="380" font-family="Inter,Segoe UI,sans-serif" font-size="11" fill="#111b21">Foi semana passada.</text><text x="32" y="395" font-family="Inter,Segoe UI,sans-serif" font-size="11" fill="#111b21">Tenho o BO e os</text><text x="32" y="410" font-family="Inter,Segoe UI,sans-serif" font-size="11" fill="#111b21">laudos.</text><text x="166" y="422" text-anchor="end" font-family="Inter,Segoe UI,sans-serif" font-size="10.5" fill="#667781">14:05</text><rect x="24" y="435" width="150" height="46" rx="9" fill="#ffffff"/><path d="M34,447 h11 l5,5 v15 h-16 z" fill="#eef2f8" stroke="#9fb0c8" stroke-width="1"/><path d="M45,447 v5 h5" fill="none" stroke="#9fb0c8" stroke-width="1"/><text x="58" y="457" font-family="Inter,Segoe UI,sans-serif" font-size="11" font-weight="600" fill="#111b21">BO_e_laudos.pdf</text><text x="58" y="471" font-family="Inter,Segoe UI,sans-serif" font-size="10" fill="#667781">PDF</text><text x="166" y="475" text-anchor="end" font-family="Inter,Segoe UI,sans-serif" font-size="10" fill="#667781">14:05</text><rect x="48" y="488" width="150" height="37" rx="9" fill="#DCF8C6"/><text x="56" y="507" font-family="Inter,Segoe UI,sans-serif" font-size="11" fill="#111b21">Recebi seu documento!</text><text x="190" y="519" text-anchor="end" font-family="Inter,Segoe UI,sans-serif" font-size="10.5" fill="#667781">14:05  ✓✓</text><rect x="48" y="532" width="150" height="82" rx="9" fill="#DCF8C6"/><text x="56" y="551" font-family="Inter,Segoe UI,sans-serif" font-size="11" fill="#111b21">Já li tudo: prazo até</text><text x="56" y="566" font-family="Inter,Segoe UI,sans-serif" font-size="11" fill="#111b21">12/08 e há provas da</text><text x="56" y="581" font-family="Inter,Segoe UI,sans-serif" font-size="11" fill="#111b21">culpa do outro</text><text x="56" y="596" font-family="Inter,Segoe UI,sans-serif" font-size="11" fill="#111b21">condutor.</text><text x="190" y="608" text-anchor="end" font-family="Inter,Segoe UI,sans-serif" font-size="10.5" fill="#667781">14:06  ✓✓</text><rect x="48" y="621" width="150" height="67" rx="9" fill="#DCF8C6"/><text x="56" y="640" font-family="Inter,Segoe UI,sans-serif" font-size="11" fill="#111b21">Vou direcionar ao Dr.</text><text x="56" y="655" font-family="Inter,Segoe UI,sans-serif" font-size="11" fill="#111b21">Martins, especialista</text><text x="56" y="670" font-family="Inter,Segoe UI,sans-serif" font-size="11" fill="#111b21">em trânsito.</text><text x="190" y="682" text-anchor="end" font-family="Inter,Segoe UI,sans-serif" font-size="10.5" fill="#667781">14:06  ✓✓</text><rect x="48" y="695" width="150" height="67" rx="9" fill="#DCF8C6"/><text x="56" y="714" font-family="Inter,Segoe UI,sans-serif" font-size="11" fill="#111b21">Posso te enviar</text><text x="56" y="729" font-family="Inter,Segoe UI,sans-serif" font-size="11" fill="#111b21">decisões recentes de</text><text x="56" y="744" font-family="Inter,Segoe UI,sans-serif" font-size="11" fill="#111b21">casos parecidos.</text><text x="190" y="756" text-anchor="end" font-family="Inter,Segoe UI,sans-serif" font-size="10.5" fill="#667781">14:07  ✓✓</text><rect x="22" y="779" width="138" height="26" rx="13" fill="#ffffff"/><text x="34" y="796" font-family="Inter,Segoe UI,sans-serif" font-size="11" fill="#8696a0">Mensagem</text><circle cx="186" cy="792" r="14" fill="#075E54"/><path d="M181,792 h10 M187,787 l5,5 l-5,5" fill="none" stroke="#fff" stroke-width="1.6" stroke-linecap="round" stroke-linejoin="round"/><circle cx="200" cy="232" r="2.4" fill="#1f74e6"/><path d="M200,232 L222,232 L226,232" fill="none" stroke="#1f74e6" stroke-width="1.3"/><text x="230" y="228" font-family="Inter,Segoe UI,sans-serif" font-size="11.5" font-weight="600" fill="#1f74e6">Atende 24h, com</text><text x="230" y="242" font-family="Inter,Segoe UI,sans-serif" font-size="11.5" font-weight="400" fill="#1f74e6">acolhimento</text><circle cx="200" cy="320" r="2.4" fill="#1f74e6"/><path d="M200,320 L222,320 L226,320" fill="none" stroke="#1f74e6" stroke-width="1.3"/><text x="230" y="318" font-family="Inter,Segoe UI,sans-serif" font-size="11.5" font-weight="600" fill="#1f74e6">Faz a triagem</text><text x="230" y="332" font-family="Inter,Segoe UI,sans-serif" font-size="11.5" font-weight="400" fill="#1f74e6">inicial do caso</text><circle cx="200" cy="506" r="2.4" fill="#1f74e6"/><path d="M200,506 L222,506 L226,506" fill="none" stroke="#1f74e6" stroke-width="1.3"/><text x="230" y="504" font-family="Inter,Segoe UI,sans-serif" font-size="11.5" font-weight="600" fill="#1f74e6">Recebe processos e</text><text x="230" y="518" font-family="Inter,Segoe UI,sans-serif" font-size="11.5" font-weight="400" fill="#1f74e6">documentos</text><circle cx="200" cy="573" r="2.4" fill="#1f74e6"/><path d="M200,573 L222,573 L226,573" fill="none" stroke="#1f74e6" stroke-width="1.3"/><text x="230" y="563" font-family="Inter,Segoe UI,sans-serif" font-size="11.5" font-weight="600" fill="#1f74e6">Lê o PDF e extrai</text><text x="230" y="577" font-family="Inter,Segoe UI,sans-serif" font-size="11.5" font-weight="400" fill="#1f74e6">prazos e</text><text x="230" y="591" font-family="Inter,Segoe UI,sans-serif" font-size="11.5" font-weight="400" fill="#1f74e6">pontos-chave</text><circle cx="200" cy="654" r="2.4" fill="#1f74e6"/><path d="M200,654 L222,654 L226,654" fill="none" stroke="#1f74e6" stroke-width="1.3"/><text x="230" y="644" font-family="Inter,Segoe UI,sans-serif" font-size="11.5" font-weight="600" fill="#1f74e6">Direciona pro</text><text x="230" y="658" font-family="Inter,Segoe UI,sans-serif" font-size="11.5" font-weight="400" fill="#1f74e6">advogado</text><text x="230" y="672" font-family="Inter,Segoe UI,sans-serif" font-size="11.5" font-weight="400" fill="#1f74e6">responsável</text><circle cx="200" cy="728" r="2.4" fill="#1f74e6"/><path d="M200,728 L222,728 L226,728" fill="none" stroke="#1f74e6" stroke-width="1.3"/><text x="230" y="726" font-family="Inter,Segoe UI,sans-serif" font-size="11.5" font-weight="600" fill="#1f74e6">Base científica:</text><text x="230" y="740" font-family="Inter,Segoe UI,sans-serif" font-size="11.5" font-weight="400" fill="#1f74e6">jurisprudência</text></svg>