<svg width="904" height="1009" viewBox="0 0 904 1009" xmlns="http://www.w3.org/2000/svg"><rect x="0" y="0" width="904" height="1009" fill="#020c2a"/><rect x="0" y="0" width="904" height="4" fill="#4a0e90"/><text x="452" y="46" text-anchor="middle" font-family="Inter,Segoe UI,sans-serif" font-size="24" font-weight="700" fill="#ffffff">Kronos Intelligence</text><text x="452" y="70" text-anchor="middle" font-family="Inter,Segoe UI,sans-serif" font-size="13" fill="#8898bb">Veja como o assistente trabalha no WhatsApp, em conversas reais</text><line x1="452" y1="104" x2="452" y2="969" stroke="rgba(255,255,255,0.12)" stroke-width="1"/><text x="52" y="110" font-family="Inter,Segoe UI,sans-serif" font-size="17" font-weight="600" fill="#ffffff">Clínicas &amp; Consultórios</text><text x="52" y="128" font-family="Inter,Segoe UI,sans-serif" font-size="12" fill="#8898bb">Atende, agenda e faz o pós-atendimento</text><text x="496" y="110" font-family="Inter,Segoe UI,sans-serif" font-size="17" font-weight="600" fill="#ffffff">Advocacia</text><text x="496" y="128" font-family="Inter,Segoe UI,sans-serif" font-size="12" fill="#8898bb">Faz a triagem e lê processos em PDF</text><g transform="translate(40,140)"><rect x="12" y="12" width="196" height="673" rx="20" fill="#E5DDD5" stroke="rgba(0,0,0,0.18)" stroke-width="1"/><path d="M32,12 H188 A20,20 0 0 1 208,32 V58 H12 V32 A20,20 0 0 1 32,12 Z" fill="#075E54"/><path d="M26,28 l-6,7 l6,7" fill="none" stroke="#fff" stroke-width="2" stroke-linecap="round" stroke-linejoin="round"/><circle cx="52" cy="35" r="13" fill="#cfd8d4"/><text x="52" y="35" dy="0.34em" text-anchor="middle" font-family="Inter,Segoe UI,sans-serif" font-size="13" font-weight="600" fill="#075E54">A</text><text x="72" y="31" font-family="Inter,Segoe UI,sans-serif" font-size="13" font-weight="600" fill="#ffffff">Clínica Aurora</text><text x="72" y="46" font-family="Inter,Segoe UI,sans-serif" font-size="10.5" fill="#d7ece6">online</text><rect x="87" y="68" width="46" height="18" rx="6" fill="rgba(255,255,255,0.8)"/><text x="110" y="80" text-anchor="middle" font-family="Inter,Segoe UI,sans-serif" font-size="10.5" fill="#54656f">ontem</text><rect x="24" y="94" width="150" height="67" rx="9" fill="#ffffff"/><text x="32" y="113" font-family="Inter,Segoe UI,sans-serif" font-size="11" fill="#111b21">Oi! Vocês fazem</text><text x="32" y="128" font-family="Inter,Segoe UI,sans-serif" font-size="11" fill="#111b21">limpeza de pele?</text><text x="32" y="143" font-family="Inter,Segoe UI,sans-serif" font-size="11" fill="#111b21">Quanto fica?</text><text x="166" y="155" text-anchor="end" font-family="Inter,Segoe UI,sans-serif" font-size="10.5" fill="#667781">09:11</text><rect x="48" y="168" width="150" height="67" rx="9" fill="#DCF8C6"/><text x="56" y="187" font-family="Inter,Segoe UI,sans-serif" font-size="11" fill="#111b21">Oi, Maria! Fazemos</text><text x="56" y="202" font-family="Inter,Segoe UI,sans-serif" font-size="11" fill="#111b21">sim, R$180. Quer que</text><text x="56" y="217" font-family="Inter,Segoe UI,sans-serif" font-size="11" fill="#111b21">eu veja um horário?</text><text x="190" y="229" text-anchor="end" font-family="Inter,Segoe UI,sans-serif" font-size="10.5" fill="#667781">09:11  ✓✓</text><rect x="24" y="242" width="150" height="52" rx="9" fill="#ffffff"/><text x="32" y="261" font-family="Inter,Segoe UI,sans-serif" font-size="11" fill="#111b21">Tem respaldo</text><text x="32" y="276" font-family="Inter,Segoe UI,sans-serif" font-size="11" fill="#111b21">científico?</text><text x="166" y="288" text-anchor="end" font-family="Inter,Segoe UI,sans-serif" font-size="10.5" fill="#667781">09:12</text><rect x="48" y="301" width="150" height="52" rx="9" fill="#DCF8C6"/><text x="56" y="320" font-family="Inter,Segoe UI,sans-serif" font-size="11" fill="#111b21">Tem sim! Te envio um</text><text x="56" y="335" font-family="Inter,Segoe UI,sans-serif" font-size="11" fill="#111b21">resumo das evidências.</text><text x="190" y="347" text-anchor="end" font-family="Inter,Segoe UI,sans-serif" font-size="10.5" fill="#667781">09:12  ✓✓</text><rect x="24" y="360" width="150" height="52" rx="9" fill="#ffffff"/><text x="32" y="379" font-family="Inter,Segoe UI,sans-serif" font-size="11" fill="#111b21">Pode marcar quinta à</text><text x="32" y="394" font-family="Inter,Segoe UI,sans-serif" font-size="11" fill="#111b21">tarde?</text><text x="166" y="406" text-anchor="end" font-family="Inter,Segoe UI,sans-serif" font-size="10.5" fill="#667781">09:13</text><rect x="48" y="419" width="150" height="52" rx="9" fill="#DCF8C6"/><text x="56" y="438" font-family="Inter,Segoe UI,sans-serif" font-size="11" fill="#111b21">Quinta, 15h com a Dra.</text><text x="56" y="453" font-family="Inter,Segoe UI,sans-serif" font-size="11" fill="#111b21">Helena. Confirmo?</text><text x="190" y="465" text-anchor="end" font-family="Inter,Segoe UI,sans-serif" font-size="10.5" fill="#667781">09:13  ✓✓</text><rect x="90" y="478" width="40" height="18" rx="6" fill="rgba(255,255,255,0.8)"/><text x="110" y="490" text-anchor="middle" font-family="Inter,Segoe UI,sans-serif" font-size="10.5" fill="#54656f">hoje</text><rect x="48" y="504" width="150" height="67" rx="9" fill="#DCF8C6"/><text x="56" y="523" font-family="Inter,Segoe UI,sans-serif" font-size="11" fill="#111b21">Oi, Maria! Lembrete:</text><text x="56" y="538" font-family="Inter,Segoe UI,sans-serif" font-size="11" fill="#111b21">sua consulta é hoje às</text><text x="56" y="553" font-family="Inter,Segoe UI,sans-serif" font-size="11" fill="#111b21">15h.</text><text x="190" y="565" text-anchor="end" font-family="Inter,Segoe UI,sans-serif" font-size="10.5" fill="#667781">08:00  ✓✓</text><rect x="48" y="578" width="150" height="52" rx="9" fill="#DCF8C6"/><text x="56" y="597" font-family="Inter,Segoe UI,sans-serif" font-size="11" fill="#111b21">Como ficou sua pele</text><text x="56" y="612" font-family="Inter,Segoe UI,sans-serif" font-size="11" fill="#111b21">após a limpeza?</text><text x="190" y="624" text-anchor="end" font-family="Inter,Segoe UI,sans-serif" font-size="10.5" fill="#667781">17:30  ✓✓</text><rect x="22" y="647" width="138" height="26" rx="13" fill="#ffffff"/><text x="34" y="664" font-family="Inter,Segoe UI,sans-serif" font-size="11" fill="#8696a0">Mensagem</text><circle cx="186" cy="660" r="14" fill="#075E54"/><path d="M181,660 h10 M187,655 l5,5 l-5,5" fill="none" stroke="#fff" stroke-width="1.6" stroke-linecap="round" stroke-linejoin="round"/><circle cx="200" cy="202" r="2.4" fill="#5ab0ff"/><path d="M200,202 L222,202 L226,202" fill="none" stroke="#5ab0ff" stroke-width="1.3"/><text x="230" y="198" font-family="Inter,Segoe UI,sans-serif" font-size="11.5" font-weight="600" fill="#5ab0ff">Atende e responde na</text><text x="230" y="212" font-family="Inter,Segoe UI,sans-serif" font-size="11.5" font-weight="400" fill="#9ec9ff">hora, 24h</text><circle cx="200" cy="327" r="2.4" fill="#5ab0ff"/><path d="M200,327 L222,327 L226,327" fill="none" stroke="#5ab0ff" stroke-width="1.3"/><text x="230" y="324" font-family="Inter,Segoe UI,sans-serif" font-size="11.5" font-weight="600" fill="#5ab0ff">Mostra base científica</text><text x="230" y="338" font-family="Inter,Segoe UI,sans-serif" font-size="11.5" font-weight="400" fill="#9ec9ff">do procedimento</text><circle cx="200" cy="445" r="2.4" fill="#5ab0ff"/><path d="M200,445 L222,445 L226,445" fill="none" stroke="#5ab0ff" stroke-width="1.3"/><text x="230" y="442" font-family="Inter,Segoe UI,sans-serif" font-size="11.5" font-weight="600" fill="#5ab0ff">Agenda direto na agenda</text><text x="230" y="456" font-family="Inter,Segoe UI,sans-serif" font-size="11.5" font-weight="400" fill="#9ec9ff">da médica</text><circle cx="200" cy="538" r="2.4" fill="#5ab0ff"/><path d="M200,538 L222,538 L226,538" fill="none" stroke="#5ab0ff" stroke-width="1.3"/><text x="230" y="534" font-family="Inter,Segoe UI,sans-serif" font-size="11.5" font-weight="600" fill="#5ab0ff">Lembrete automático 24h</text><text x="230" y="548" font-family="Inter,Segoe UI,sans-serif" font-size="11.5" font-weight="400" fill="#9ec9ff">antes</text><circle cx="200" cy="604" r="2.4" fill="#5ab0ff"/><path d="M200,604 L222,604 L226,604" fill="none" stroke="#5ab0ff" stroke-width="1.3"/><text x="230" y="601" font-family="Inter,Segoe UI,sans-serif" font-size="11.5" font-weight="600" fill="#5ab0ff">Pós-atendimento e</text><text x="230" y="615" font-family="Inter,Segoe UI,sans-serif" font-size="11.5" font-weight="400" fill="#9ec9ff">recompra</text></g><g transform="translate(484,140)"><rect x="12" y="12" width="196" height="805" rx="20" fill="#E5DDD5" stroke="rgba(0,0,0,0.18)" stroke-width="1"/><path d="M32,12 H188 A20,20 0 0 1 208,32 V58 H12 V32 A20,20 0 0 1 32,12 Z" fill="#075E54"/><path d="M26,28 l-6,7 l6,7" fill="none" stroke="#fff" stroke-width="2" stroke-linecap="round" stroke-linejoin="round"/><circle cx="52" cy="35" r="13" fill="#cfd8d4"/><text x="52" y="35" dy="0.34em" text-anchor="middle" font-family="Inter,Segoe UI,sans-serif" font-size="13" font-weight="600" fill="#075E54">M</text><text x="72" y="31" font-family="Inter,Segoe UI,sans-serif" font-size="13" font-weight="600" fill="#ffffff">Martins Advocacia</text><text x="72" y="46" font-family="Inter,Segoe UI,sans-serif" font-size="10.5" fill="#d7ece6">online</text><rect x="87" y="68" width="46" height="18" rx="6" fill="rgba(255,255,255,0.8)"/><text x="110" y="80" text-anchor="middle" font-family="Inter,Segoe UI,sans-serif" font-size="10.5" fill="#54656f">ontem</text><rect x="24" y="94" width="150" height="82" rx="9" fill="#ffffff"/><text x="32" y="113" font-family="Inter,Segoe UI,sans-serif" font-size="11" fill="#111b21">Boa tarde. Sofri um</text><text x="32" y="128" font-family="Inter,Segoe UI,sans-serif" font-size="11" fill="#111b21">acidente de trânsito,</text><text x="32" y="143" font-family="Inter,Segoe UI,sans-serif" font-size="11" fill="#111b21">tenho direito a</text><text x="32" y="158" font-family="Inter,Segoe UI,sans-serif" font-size="11" fill="#111b21">indenização?</text><text x="166" y="170" text-anchor="end" font-family="Inter,Segoe UI,sans-serif" font-size="10.5" fill="#667781">14:02</text><rect x="48" y="183" width="150" height="97" rx="9" fill="#DCF8C6"/><text x="56" y="202" font-family="Inter,Segoe UI,sans-serif" font-size="11" fill="#111b21">Boa tarde! Sou a Léa,</text><text x="56" y="217" font-family="Inter,Segoe UI,sans-serif" font-size="11" fill="#111b21">assistente do</text><text x="56" y="232" font-family="Inter,Segoe UI,sans-serif" font-size="11" fill="#111b21">escritório. Sinto</text><text x="56" y="247" font-family="Inter,Segoe UI,sans-serif" font-size="11" fill="#111b21">muito pelo ocorrido,</text><text x="56" y="262" font-family="Inter,Segoe UI,sans-serif" font-size="11" fill="#111b21">vou te ajudar.</text><text x="190" y="274" text-anchor="end" font-family="Inter,Segoe UI,sans-serif" font-size="10.5" fill="#667781">14:02  ✓✓</text><rect x="48" y="287" width="150" height="67" rx="9" fill="#DCF8C6"/><text x="56" y="306" font-family="Inter,Segoe UI,sans-serif" font-size="11" fill="#111b21">Pode me contar quando</text><text x="56" y="321" font-family="Inter,Segoe UI,sans-serif" font-size="11" fill="#111b21">foi e se há boletim de</text><text x="56" y="336" font-family="Inter,Segoe UI,sans-serif" font-size="11" fill="#111b21">ocorrência?</text><text x="190" y="348" text-anchor="end" font-family="Inter,Segoe UI,sans-serif" font-size="10.5" fill="#667781">14:03  ✓✓</text><rect x="24" y="361" width="150" height="67" rx="9" fill="#ffffff"/><text x="32" y="380" font-family="Inter,Segoe UI,sans-serif" font-size="11" fill="#111b21">Foi semana passada.</text><text x="32" y="395" font-family="Inter,Segoe UI,sans-serif" font-size="11" fill="#111b21">Tenho o BO e os</text><text x="32" y="410" font-family="Inter,Segoe UI,sans-serif" font-size="11" fill="#111b21">laudos.</text><text x="166" y="422" text-anchor="end" font-family="Inter,Segoe UI,sans-serif" font-size="10.5" fill="#667781">14:05</text><rect x="24" y="435" width="150" height="46" rx="9" fill="#ffffff"/><path d="M34,447 h11 l5,5 v15 h-16 z" fill="#eef2f8" stroke="#9fb0c8" stroke-width="1"/><path d="M45,447 v5 h5" fill="none" stroke="#9fb0c8" stroke-width="1"/><text x="58" y="457" font-family="Inter,Segoe UI,sans-serif" font-size="11" font-weight="600" fill="#111b21">BO_e_laudos.pdf</text><text x="58" y="471" font-family="Inter,Segoe UI,sans-serif" font-size="10" fill="#667781">PDF</text><rect x="48" y="488" width="150" height="37" rx="9" fill="#DCF8C6"/><text x="56" y="507" font-family="Inter,Segoe UI,sans-serif" font-size="11" fill="#111b21">Recebi seu documento!</text><text x="190" y="519" text-anchor="end" font-family="Inter,Segoe UI,sans-serif" font-size="10.5" fill="#667781">14:05  ✓✓</text><rect x="48" y="532" width="150" height="82" rx="9" fill="#DCF8C6"/><text x="56" y="551" font-family="Inter,Segoe UI,sans-serif" font-size="11" fill="#111b21">Já li tudo: prazo até</text><text x="56" y="566" font-family="Inter,Segoe UI,sans-serif" font-size="11" fill="#111b21">12/08 e há provas da</text><text x="56" y="581" font-family="Inter,Segoe UI,sans-serif" font-size="11" fill="#111b21">culpa do outro</text><text x="56" y="596" font-family="Inter,Segoe UI,sans-serif" font-size="11" fill="#111b21">condutor.</text><text x="190" y="608" text-anchor="end" font-family="Inter,Segoe UI,sans-serif" font-size="10.5" fill="#667781">14:06  ✓✓</text><rect x="48" y="621" width="150" height="67" rx="9" fill="#DCF8C6"/><text x="56" y="640" font-family="Inter,Segoe UI,sans-serif" font-size="11" fill="#111b21">Vou direcionar ao Dr.</text><text x="56" y="655" font-family="Inter,Segoe UI,sans-serif" font-size="11" fill="#111b21">Martins, especialista</text><text x="56" y="670" font-family="Inter,Segoe UI,sans-serif" font-size="11" fill="#111b21">em trânsito.</text><text x="190" y="682" text-anchor="end" font-family="Inter,Segoe UI,sans-serif" font-size="10.5" fill="#667781">14:06  ✓✓</text><rect x="48" y="695" width="150" height="67" rx="9" fill="#DCF8C6"/><text x="56" y="714" font-family="Inter,Segoe UI,sans-serif" font-size="11" fill="#111b21">Posso te enviar</text><text x="56" y="729" font-family="Inter,Segoe UI,sans-serif" font-size="11" fill="#111b21">decisões recentes de</text><text x="56" y="744" font-family="Inter,Segoe UI,sans-serif" font-size="11" fill="#111b21">casos parecidos.</text><text x="190" y="756" text-anchor="end" font-family="Inter,Segoe UI,sans-serif" font-size="10.5" fill="#667781">14:07  ✓✓</text><rect x="22" y="779" width="138" height="26" rx="13" fill="#ffffff"/><text x="34" y="796" font-family="Inter,Segoe UI,sans-serif" font-size="11" fill="#8696a0">Mensagem</text><circle cx="186" cy="792" r="14" fill="#075E54"/><path d="M181,792 h10 M187,787 l5,5 l-5,5" fill="none" stroke="#fff" stroke-width="1.6" stroke-linecap="round" stroke-linejoin="round"/><circle cx="200" cy="232" r="2.4" fill="#5ab0ff"/><path d="M200,232 L222,232 L226,232" fill="none" stroke="#5ab0ff" stroke-width="1.3"/><text x="230" y="228" font-family="Inter,Segoe UI,sans-serif" font-size="11.5" font-weight="600" fill="#5ab0ff">Atende 24h, com</text><text x="230" y="242" font-family="Inter,Segoe UI,sans-serif" font-size="11.5" font-weight="400" fill="#9ec9ff">acolhimento</text><circle cx="200" cy="320" r="2.4" fill="#5ab0ff"/><path d="M200,320 L222,320 L226,320" fill="none" stroke="#5ab0ff" stroke-width="1.3"/><text x="230" y="318" font-family="Inter,Segoe UI,sans-serif" font-size="11.5" font-weight="600" fill="#5ab0ff">Faz a triagem inicial</text><text x="230" y="332" font-family="Inter,Segoe UI,sans-serif" font-size="11.5" font-weight="400" fill="#9ec9ff">do caso</text><circle cx="200" cy="506" r="2.4" fill="#5ab0ff"/><path d="M200,506 L222,506 L226,506" fill="none" stroke="#5ab0ff" stroke-width="1.3"/><text x="230" y="504" font-family="Inter,Segoe UI,sans-serif" font-size="11.5" font-weight="600" fill="#5ab0ff">Recebe processos e</text><text x="230" y="518" font-family="Inter,Segoe UI,sans-serif" font-size="11.5" font-weight="400" fill="#9ec9ff">documentos</text><circle cx="200" cy="573" r="2.4" fill="#5ab0ff"/><path d="M200,573 L222,573 L226,573" fill="none" stroke="#5ab0ff" stroke-width="1.3"/><text x="230" y="570" font-family="Inter,Segoe UI,sans-serif" font-size="11.5" font-weight="600" fill="#5ab0ff">Lê o PDF e extrai</text><text x="230" y="584" font-family="Inter,Segoe UI,sans-serif" font-size="11.5" font-weight="400" fill="#9ec9ff">prazos e pontos-chave</text><circle cx="200" cy="654" r="2.4" fill="#5ab0ff"/><path d="M200,654 L222,654 L226,654" fill="none" stroke="#5ab0ff" stroke-width="1.3"/><text x="230" y="652" font-family="Inter,Segoe UI,sans-serif" font-size="11.5" font-weight="600" fill="#5ab0ff">Direciona pro advogado</text><text x="230" y="666" font-family="Inter,Segoe UI,sans-serif" font-size="11.5" font-weight="400" fill="#9ec9ff">responsável</text><circle cx="200" cy="728" r="2.4" fill="#5ab0ff"/><path d="M200,728 L222,728 L226,728" fill="none" stroke="#5ab0ff" stroke-width="1.3"/><text x="230" y="726" font-family="Inter,Segoe UI,sans-serif" font-size="11.5" font-weight="600" fill="#5ab0ff">Base científica:</text><text x="230" y="740" font-family="Inter,Segoe UI,sans-serif" font-size="11.5" font-weight="400" fill="#9ec9ff">jurisprudência</text></g></svg>